<svg width="60" height="119" viewBox="0 0 60 119" fill="none" xmlns="http://www.w3.org/2000/svg">
<rect x="0.5" y="0.5" width="59" height="118" rx="4.5" fill="#3B59FA"/>
<path d="M6.148 9.16C6.596 9.16 6.912 9.42 7.076 9.74L6.688 9.968C6.528 9.732 6.38 9.624 6.152 9.624C5.916 9.624 5.76 9.752 5.76 9.944C5.76 10.092 5.876 10.208 6.104 10.292L6.296 10.364C6.9 10.576 7.152 10.82 7.152 11.208C7.152 11.468 7.052 11.672 6.852 11.82C6.652 11.968 6.42 12.04 6.16 12.04C5.916 12.04 5.7 11.976 5.512 11.848C5.328 11.72 5.204 11.556 5.14 11.352L5.544 11.14C5.668 11.424 5.876 11.564 6.16 11.564C6.428 11.564 6.608 11.436 6.608 11.2C6.608 11.004 6.492 10.924 6.152 10.796L5.976 10.728C5.5 10.556 5.24 10.34 5.24 9.928C5.24 9.696 5.328 9.512 5.5 9.372C5.672 9.232 5.888 9.16 6.148 9.16ZM8.22897 9.88C8.48097 9.88 8.73697 9.98 8.94897 10.172C9.16897 10.364 9.28497 10.716 9.23297 11.148H7.67697C7.74097 11.44 7.97697 11.604 8.28097 11.604C8.52497 11.604 8.64497 11.556 8.82097 11.444L9.10497 11.72C8.90497 11.932 8.62497 12.04 8.26497 12.04C7.97697 12.04 7.72097 11.944 7.49697 11.756C7.27697 11.564 7.16497 11.3 7.16497 10.964C7.16497 10.24 7.76097 9.88 8.22897 9.88ZM8.22897 10.32C7.98497 10.32 7.74897 10.484 7.68097 10.772H8.77297C8.72897 10.484 8.48497 10.32 8.22897 10.32ZM10.9736 9.92H11.5016L10.5936 12H10.1256L9.22156 9.92H9.74956L10.3616 11.38L10.9736 9.92ZM12.502 12.04C12.242 12.04 12.002 11.944 11.79 11.756C11.578 11.564 11.474 11.3 11.474 10.96C11.474 10.62 11.578 10.356 11.79 10.168C12.002 9.976 12.242 9.88 12.502 9.88C12.822 9.88 13.058 10.052 13.142 10.216H13.17V9.92H13.682V12H13.17V11.704H13.142C13.058 11.868 12.822 12.04 12.502 12.04ZM12.15 11.42C12.27 11.528 12.41 11.584 12.574 11.584C12.738 11.584 12.878 11.528 12.998 11.42C13.122 11.312 13.182 11.156 13.182 10.96C13.182 10.764 13.122 10.608 12.998 10.5C12.878 10.392 12.738 10.336 12.574 10.336C12.41 10.336 12.27 10.392 12.15 10.5C12.034 10.608 11.974 10.764 11.974 10.96C11.974 11.156 12.034 11.312 12.15 11.42ZM14.8972 11.38L15.5092 9.92H16.0372L15.1292 12L14.7772 12.76H14.2652L14.6372 11.948L13.7572 9.92H14.2852L14.8972 11.38ZM16.8617 12.04C16.6497 12.04 16.4697 11.964 16.3137 11.808C16.1617 11.652 16.0857 11.424 16.0857 11.12V9.92H16.6017V11.088C16.6017 11.424 16.7937 11.588 17.0497 11.588C17.1897 11.588 17.3097 11.536 17.4017 11.436C17.4937 11.336 17.5457 11.24 17.5497 11.148V9.92H18.0657V12H17.5497V11.592C17.5217 11.684 17.4457 11.78 17.3217 11.884C17.1977 11.988 17.0457 12.04 16.8617 12.04Z" fill="white"/>
<rect x="5" y="96" width="49" height="15" rx="2" fill="url(#paint0_linear_41_12)"/>
<path d="M23.544 103.936L24.296 105H23.936L23.228 103.992H23.152H22.572V105H22.24V102.2H23.152C23.46 102.2 23.7 102.284 23.876 102.452C24.056 102.62 24.144 102.836 24.144 103.104C24.144 103.508 23.924 103.82 23.544 103.936ZM23.144 102.512H22.572V103.696H23.144C23.556 103.696 23.812 103.484 23.812 103.104C23.812 102.724 23.556 102.512 23.144 102.512ZM25.5901 102.88C25.8421 102.88 26.0941 102.976 26.3061 103.164C26.5181 103.344 26.6461 103.684 26.6101 104.084H24.8661C24.9141 104.516 25.2421 104.76 25.6421 104.76C25.8981 104.76 26.1061 104.684 26.2661 104.528L26.4581 104.704C26.2701 104.928 25.9981 105.04 25.6341 105.04C25.4501 105.04 25.2781 105.004 25.1141 104.928C24.7941 104.772 24.5421 104.424 24.5421 103.964C24.5421 103.24 25.1221 102.88 25.5901 102.88ZM25.5901 103.164C25.4221 103.164 25.2661 103.224 25.1221 103.344C24.9821 103.46 24.8941 103.624 24.8661 103.836H26.3181C26.3021 103.628 26.2181 103.464 26.0701 103.344C25.9221 103.224 25.7621 103.164 25.5901 103.164ZM28.698 103.316V102.92H29.022V105C29.022 105.628 28.478 105.824 28.07 105.824C27.794 105.824 27.59 105.772 27.45 105.668V105.388C27.59 105.492 27.794 105.544 28.07 105.544C28.438 105.544 28.698 105.34 28.698 105V104.604H28.674C28.562 104.844 28.266 105.04 27.918 105.04C27.654 105.04 27.414 104.944 27.198 104.752C26.986 104.56 26.878 104.296 26.878 103.96C26.878 103.624 26.986 103.36 27.198 103.168C27.414 102.976 27.654 102.88 27.918 102.88C28.266 102.88 28.562 103.076 28.674 103.316H28.698ZM27.426 104.54C27.582 104.68 27.758 104.748 27.954 104.748C28.15 104.748 28.326 104.68 28.478 104.54C28.63 104.4 28.706 104.208 28.706 103.96C28.706 103.712 28.63 103.52 28.478 103.38C28.326 103.24 28.15 103.172 27.954 103.172C27.758 103.172 27.582 103.24 27.426 103.38C27.274 103.52 27.198 103.712 27.198 103.96C27.198 104.208 27.274 104.4 27.426 104.54ZM29.4819 102.172H29.8099V102.492H29.4819V102.172ZM29.4819 102.92H29.8099V105H29.4819V102.92ZM31.5511 103.34L31.2791 103.42C31.1951 103.24 31.0591 103.148 30.8751 103.148C30.6711 103.148 30.5351 103.264 30.5351 103.436C30.5351 103.576 30.6311 103.684 30.8231 103.752L31.0311 103.824C31.4311 103.968 31.6311 104.112 31.6311 104.432C31.6311 104.624 31.5591 104.772 31.4111 104.88C31.2671 104.988 31.0951 105.04 30.8911 105.04C30.5031 105.04 30.2151 104.832 30.1391 104.484L30.4031 104.408C30.4671 104.632 30.6591 104.772 30.8951 104.772C31.1231 104.772 31.3151 104.648 31.3151 104.44C31.3151 104.288 31.1991 104.172 30.9711 104.092L30.7391 104.008C30.3911 103.884 30.2191 103.692 30.2191 103.432C30.2191 103.268 30.2791 103.136 30.4031 103.036C30.5271 102.932 30.6831 102.88 30.8671 102.88C31.1911 102.88 31.4351 103.056 31.5511 103.34ZM32.91 102.92V103.196H32.47V104.536C32.47 104.668 32.534 104.732 32.666 104.732C32.742 104.732 32.822 104.716 32.906 104.68V104.952C32.81 105 32.702 105.024 32.582 105.024C32.29 105.024 32.146 104.888 32.146 104.612V103.196H31.858V102.92H32.146V102.388H32.47V102.92H32.91ZM34.2346 102.88C34.4866 102.88 34.7386 102.976 34.9506 103.164C35.1626 103.344 35.2906 103.684 35.2546 104.084H33.5106C33.5586 104.516 33.8866 104.76 34.2866 104.76C34.5426 104.76 34.7506 104.684 34.9106 104.528L35.1026 104.704C34.9146 104.928 34.6426 105.04 34.2786 105.04C34.0946 105.04 33.9226 105.004 33.7586 104.928C33.4386 104.772 33.1866 104.424 33.1866 103.964C33.1866 103.24 33.7666 102.88 34.2346 102.88ZM34.2346 103.164C34.0666 103.164 33.9106 103.224 33.7666 103.344C33.6266 103.46 33.5386 103.624 33.5106 103.836H34.9626C34.9466 103.628 34.8626 103.464 34.7146 103.344C34.5666 103.224 34.4066 103.164 34.2346 103.164ZM36.7225 102.888C36.7665 102.888 36.8025 102.892 36.8225 102.896V103.204C36.8025 103.2 36.7705 103.196 36.7265 103.196C36.5225 103.196 36.3505 103.264 36.2065 103.4C36.0625 103.536 35.9785 103.72 35.9505 103.948V105H35.6225V102.92H35.9505V103.468C35.9905 103.304 36.0785 103.168 36.2185 103.056C36.3585 102.944 36.5265 102.888 36.7225 102.888Z" fill="white"/>
<path d="M9.87594 49.811V48.15H10.4809V52H9.87594V50.372H8.09394V52H7.48894V48.15H8.09394V49.811H9.87594ZM12.3953 52.055C12.0653 52.055 11.7243 51.9285 11.4438 51.692C11.1633 51.4555 10.9763 51.0485 10.9763 50.57C10.9763 50.0915 11.1633 49.6845 11.4438 49.448C11.7243 49.2115 12.0653 49.085 12.3953 49.085C12.8518 49.085 13.2148 49.338 13.3468 49.6075H13.3798V49.14H13.9738V52H13.3798V51.5325H13.3468C13.2148 51.802 12.8518 52.055 12.3953 52.055ZM12.4723 51.527C12.7198 51.527 12.9343 51.4445 13.1158 51.274C13.3028 51.1035 13.3963 50.8725 13.3963 50.57C13.3963 50.2675 13.3028 50.0365 13.1158 49.866C12.9343 49.6955 12.7198 49.613 12.4723 49.613C12.2303 49.613 12.0158 49.6955 11.8288 49.866C11.6473 50.0365 11.5538 50.2675 11.5538 50.57C11.5538 50.8725 11.6473 51.1035 11.8288 51.274C12.0158 51.4445 12.2303 51.527 12.4723 51.527ZM16.1566 49.085C16.4866 49.085 16.8276 49.2115 17.1081 49.448C17.3886 49.6845 17.5756 50.0915 17.5756 50.57C17.5756 51.0485 17.3886 51.4555 17.1081 51.692C16.8276 51.9285 16.4866 52.055 16.1566 52.055C15.7001 52.055 15.3371 51.802 15.2051 51.5325H15.1721V53.045H14.5781V49.14H15.1721V49.6075H15.2051C15.3371 49.338 15.7001 49.085 16.1566 49.085ZM16.0796 51.527C16.3216 51.527 16.5361 51.4445 16.7176 51.274C16.9046 51.1035 16.9981 50.8725 16.9981 50.57C16.9981 50.2675 16.9046 50.0365 16.7176 49.866C16.5361 49.6955 16.3216 49.613 16.0796 49.613C15.8321 49.613 15.6176 49.6955 15.4306 49.866C15.2491 50.0365 15.1556 50.2675 15.1556 50.57C15.1556 50.8725 15.2491 51.1035 15.4306 51.274C15.6176 51.4445 15.8321 51.527 16.0796 51.527ZM19.621 49.085C19.951 49.085 20.292 49.2115 20.5725 49.448C20.853 49.6845 21.04 50.0915 21.04 50.57C21.04 51.0485 20.853 51.4555 20.5725 51.692C20.292 51.9285 19.951 52.055 19.621 52.055C19.1645 52.055 18.8015 51.802 18.6695 51.5325H18.6365V53.045H18.0425V49.14H18.6365V49.6075H18.6695C18.8015 49.338 19.1645 49.085 19.621 49.085ZM19.544 51.527C19.786 51.527 20.0005 51.4445 20.182 51.274C20.369 51.1035 20.4625 50.8725 20.4625 50.57C20.4625 50.2675 20.369 50.0365 20.182 49.866C20.0005 49.6955 19.786 49.613 19.544 49.613C19.2965 49.613 19.082 49.6955 18.895 49.866C18.7135 50.0365 18.62 50.2675 18.62 50.57C18.62 50.8725 18.7135 51.1035 18.895 51.274C19.082 51.4445 19.2965 51.527 19.544 51.527ZM21.5068 48.1115H22.1008V48.6835H21.5068V48.1115ZM21.5068 49.14H22.1008V52H21.5068V49.14ZM24.2831 49.085C24.5801 49.085 24.8331 49.1895 25.0421 49.404C25.2511 49.6185 25.3556 49.932 25.3556 50.3445V52H24.7616V50.3775C24.7616 49.866 24.4756 49.6075 24.0796 49.6075C23.8596 49.6075 23.6781 49.6845 23.5351 49.8385C23.3976 49.987 23.3151 50.141 23.2986 50.2895V52H22.7046V49.14H23.2986V49.734C23.3591 49.569 23.6561 49.085 24.2831 49.085ZM27.2471 49.085C27.8961 49.085 28.7706 49.58 28.6386 50.79H26.3781C26.4661 51.2795 26.8401 51.549 27.3186 51.549C27.6211 51.549 27.8851 51.461 28.1106 51.285L28.4461 51.604C28.1766 51.9065 27.7971 52.055 27.3021 52.055C27.0546 52.055 26.8181 52.0055 26.5926 51.901C26.1471 51.6865 25.7951 51.208 25.7951 50.5755C25.7951 50.097 25.9931 49.69 26.2791 49.4535C26.5706 49.217 26.9171 49.085 27.2471 49.085ZM27.2471 49.5965C26.8511 49.5965 26.4716 49.8715 26.3836 50.35H28.1051C28.0776 50.1135 27.9786 49.9265 27.8081 49.7945C27.6376 49.6625 27.4506 49.5965 27.2471 49.5965ZM30.9986 49.7615L30.5036 49.899C30.4046 49.6735 30.2451 49.5635 30.0306 49.5635C29.8051 49.5635 29.6401 49.69 29.6401 49.8825C29.6401 50.042 29.7501 50.163 29.9701 50.24L30.2836 50.35C30.8281 50.5425 31.1031 50.735 31.1031 51.1915C31.1031 51.461 30.9986 51.6755 30.7896 51.8295C30.5861 51.978 30.3331 52.055 30.0361 52.055C29.4696 52.055 29.0681 51.7635 28.9581 51.274L29.4311 51.131C29.5191 51.395 29.7446 51.5765 30.0361 51.5765C30.3056 51.5765 30.5256 51.4225 30.5256 51.2025C30.5256 51.043 30.3991 50.9165 30.1516 50.823L29.8271 50.7075C29.3211 50.526 29.0681 50.251 29.0681 49.877C29.0681 49.6405 29.1561 49.4535 29.3376 49.305C29.5191 49.1565 29.7446 49.085 30.0086 49.085C30.4926 49.085 30.8391 49.3435 30.9986 49.7615ZM33.4478 49.7615L32.9528 49.899C32.8538 49.6735 32.6943 49.5635 32.4798 49.5635C32.2543 49.5635 32.0893 49.69 32.0893 49.8825C32.0893 50.042 32.1993 50.163 32.4193 50.24L32.7328 50.35C33.2773 50.5425 33.5523 50.735 33.5523 51.1915C33.5523 51.461 33.4478 51.6755 33.2388 51.8295C33.0353 51.978 32.7823 52.055 32.4853 52.055C31.9188 52.055 31.5173 51.7635 31.4073 51.274L31.8803 51.131C31.9683 51.395 32.1938 51.5765 32.4853 51.5765C32.7548 51.5765 32.9748 51.4225 32.9748 51.2025C32.9748 51.043 32.8483 50.9165 32.6008 50.823L32.2763 50.7075C31.7703 50.526 31.5173 50.251 31.5173 49.877C31.5173 49.6405 31.6053 49.4535 31.7868 49.305C31.9683 49.1565 32.1938 49.085 32.4578 49.085C32.9418 49.085 33.2883 49.3435 33.4478 49.7615ZM37.3001 49.8825C37.7786 49.998 38.1196 50.394 38.1196 50.9275C38.1196 51.5875 37.6521 52 36.7281 52H35.3971V48.15H36.7006C37.0691 48.15 37.3551 48.2435 37.5531 48.425C37.7566 48.6065 37.8556 48.8265 37.8556 49.096C37.8556 49.47 37.6356 49.7505 37.3001 49.8825ZM36.6511 48.6835H36.0021V49.712H36.6456C37.0361 49.712 37.2561 49.503 37.2561 49.1785C37.2561 48.865 37.0416 48.6835 36.6511 48.6835ZM36.0021 51.4665H36.7006C37.2451 51.4665 37.5146 51.2575 37.5146 50.834C37.5146 50.438 37.2506 50.185 36.6951 50.185H36.0021V51.4665ZM39.9283 49.085C40.5773 49.085 41.4518 49.58 41.3198 50.79H39.0593C39.1473 51.2795 39.5213 51.549 39.9998 51.549C40.3023 51.549 40.5663 51.461 40.7918 51.285L41.1273 51.604C40.8578 51.9065 40.4783 52.055 39.9833 52.055C39.7358 52.055 39.4993 52.0055 39.2738 51.901C38.8283 51.6865 38.4763 51.208 38.4763 50.5755C38.4763 50.097 38.6743 49.69 38.9603 49.4535C39.2518 49.217 39.5983 49.085 39.9283 49.085ZM39.9283 49.5965C39.5323 49.5965 39.1528 49.8715 39.0648 50.35H40.7863C40.7588 50.1135 40.6598 49.9265 40.4893 49.7945C40.3188 49.6625 40.1318 49.5965 39.9283 49.5965ZM44.0702 49.6075V49.14H44.6642V52C44.6642 52.8635 43.8667 53.133 43.2837 53.133C42.9317 53.133 42.6567 53.067 42.4642 52.9405V52.4455C42.6512 52.572 42.9262 52.6325 43.2837 52.6325C43.7732 52.6325 44.0702 52.374 44.0702 52V51.5325H44.0372C43.9052 51.802 43.5422 52.055 43.0857 52.055C42.7557 52.055 42.4147 51.9285 42.1342 51.692C41.8537 51.4555 41.6667 51.0485 41.6667 50.57C41.6667 50.0915 41.8537 49.6845 42.1342 49.448C42.4147 49.2115 42.7557 49.085 43.0857 49.085C43.5422 49.085 43.9052 49.338 44.0372 49.6075H44.0702ZM43.1627 51.527C43.4102 51.527 43.6247 51.4445 43.8062 51.274C43.9932 51.1035 44.0867 50.8725 44.0867 50.57C44.0867 50.2675 43.9932 50.0365 43.8062 49.866C43.6247 49.6955 43.4102 49.613 43.1627 49.613C42.9207 49.613 42.7062 49.6955 42.5192 49.866C42.3377 50.0365 42.2442 50.2675 42.2442 50.57C42.2442 50.8725 42.3377 51.1035 42.5192 51.274C42.7062 51.4445 42.9207 51.527 43.1627 51.527ZM45.2686 48.1115H45.8626V48.6835H45.2686V48.1115ZM45.2686 49.14H45.8626V52H45.2686V49.14ZM48.0448 49.085C48.3418 49.085 48.5948 49.1895 48.8038 49.404C49.0128 49.6185 49.1173 49.932 49.1173 50.3445V52H48.5233V50.3775C48.5233 49.866 48.2373 49.6075 47.8413 49.6075C47.6213 49.6075 47.4398 49.6845 47.2968 49.8385C47.1593 49.987 47.0768 50.141 47.0603 50.2895V52H46.4663V49.14H47.0603V49.734C47.1208 49.569 47.4178 49.085 48.0448 49.085ZM51.5698 49.7615L51.0748 49.899C50.9758 49.6735 50.8163 49.5635 50.6018 49.5635C50.3763 49.5635 50.2113 49.69 50.2113 49.8825C50.2113 50.042 50.3213 50.163 50.5413 50.24L50.8548 50.35C51.3993 50.5425 51.6743 50.735 51.6743 51.1915C51.6743 51.461 51.5698 51.6755 51.3608 51.8295C51.1573 51.978 50.9043 52.055 50.6073 52.055C50.0408 52.055 49.6393 51.7635 49.5293 51.274L50.0023 51.131C50.0903 51.395 50.3158 51.5765 50.6073 51.5765C50.8768 51.5765 51.0968 51.4225 51.0968 51.2025C51.0968 51.043 50.9703 50.9165 50.7228 50.823L50.3983 50.7075C49.8923 50.526 49.6393 50.251 49.6393 49.877C49.6393 49.6405 49.7273 49.4535 49.9088 49.305C50.0903 49.1565 50.3158 49.085 50.5798 49.085C51.0638 49.085 51.4103 49.3435 51.5698 49.7615ZM27.4134 56.2575L28.1724 54.14H28.7664L27.6939 57H27.1494L26.3244 54.833L25.4994 57H24.9549L23.8824 54.14H24.4764L25.2354 56.2575L26.0604 54.14H26.5884L27.4134 56.2575ZM29.209 53.1115H29.803V53.6835H29.209V53.1115ZM29.209 54.14H29.803V57H29.209V54.14ZM31.8367 54.14V54.635H31.2317V56.2355C31.2317 56.417 31.3197 56.505 31.5012 56.505C31.6057 56.505 31.7157 56.483 31.8367 56.439V56.9285C31.6992 57 31.5342 57.033 31.3417 57.033C30.9017 57.033 30.6377 56.857 30.6377 56.3675V54.635H30.2417V54.14H30.6377V53.4085H31.2317V54.14H31.8367ZM33.9081 54.085C34.2051 54.085 34.4581 54.1895 34.6671 54.404C34.8761 54.6185 34.9806 54.932 34.9806 55.3445V57H34.3866V55.3775C34.3866 54.866 34.1006 54.6075 33.7046 54.6075C33.4846 54.6075 33.3031 54.6845 33.1601 54.8385C33.0226 54.987 32.9401 55.141 32.9236 55.2895V57H32.3296V53.1115H32.9236V54.734C32.9841 54.569 33.2811 54.085 33.9081 54.085ZM15.226 59.877H16.898C17.1015 61.23 16.249 62.055 15.1985 62.055C14.6375 62.055 14.1645 61.868 13.774 61.4995C13.389 61.1255 13.1965 60.6525 13.1965 60.075C13.1965 59.4975 13.389 59.0245 13.7795 58.656C14.17 58.282 14.643 58.095 15.1985 58.095C15.7155 58.095 16.15 58.249 16.502 58.5515L15.9685 59.151C15.7485 59.0025 15.512 58.9255 15.2535 58.9255C14.918 58.9255 14.643 59.0355 14.434 59.25C14.225 59.4645 14.1205 59.7395 14.1205 60.075C14.1205 60.4105 14.2195 60.691 14.4175 60.9055C14.621 61.12 14.885 61.2245 15.2095 61.2245C15.71 61.2245 16.0015 61.021 16.095 60.6085H15.226V59.877ZM18.2984 59.184C18.6504 59.052 18.9804 59.052 19.3269 59.184C19.6789 59.3105 19.9924 59.5305 20.1849 59.9265C20.3774 60.3225 20.3774 60.8395 20.1849 61.2355C19.9924 61.626 19.6789 61.8405 19.3269 61.967C18.9804 62.0825 18.6504 62.0825 18.2984 61.967C17.9519 61.8405 17.6384 61.626 17.4459 61.2355C17.2534 60.8395 17.2534 60.3225 17.4459 59.9265C17.6384 59.5305 17.9519 59.3105 18.2984 59.184ZM18.1389 60.581C18.1389 60.7955 18.2049 60.9715 18.3424 61.098C18.4799 61.2245 18.6339 61.2905 18.8154 61.2905C18.9969 61.2905 19.1509 61.2245 19.2829 61.098C19.4204 60.9715 19.4864 60.7955 19.4864 60.581C19.4864 60.3555 19.4204 60.174 19.2829 60.0475C19.1509 59.9155 18.9969 59.8495 18.8154 59.8495C18.6339 59.8495 18.4799 59.9155 18.3424 60.0475C18.2049 60.174 18.1389 60.3555 18.1389 60.581ZM21.607 59.184C21.959 59.052 22.289 59.052 22.6355 59.184C22.9875 59.3105 23.301 59.5305 23.4935 59.9265C23.686 60.3225 23.686 60.8395 23.4935 61.2355C23.301 61.626 22.9875 61.8405 22.6355 61.967C22.289 62.0825 21.959 62.0825 21.607 61.967C21.2605 61.8405 20.947 61.626 20.7545 61.2355C20.562 60.8395 20.562 60.3225 20.7545 59.9265C20.947 59.5305 21.2605 59.3105 21.607 59.184ZM21.4475 60.581C21.4475 60.7955 21.5135 60.9715 21.651 61.098C21.7885 61.2245 21.9425 61.2905 22.124 61.2905C22.3055 61.2905 22.4595 61.2245 22.5915 61.098C22.729 60.9715 22.795 60.7955 22.795 60.581C22.795 60.3555 22.729 60.174 22.5915 60.0475C22.4595 59.9155 22.3055 59.8495 22.124 59.8495C21.9425 59.8495 21.7885 59.9155 21.651 60.0475C21.5135 60.174 21.4475 60.3555 21.4475 60.581ZM26.0596 59.459V58.1115H26.9286V62H26.0596V61.681H26.0211C25.9936 61.7305 25.9496 61.78 25.9001 61.8295C25.7956 61.923 25.5261 62.055 25.2346 62.055C24.8771 62.055 24.5581 61.923 24.2666 61.6645C23.9806 61.406 23.8376 61.0375 23.8376 60.57C23.8376 60.1025 23.9806 59.734 24.2666 59.4755C24.5581 59.217 24.8771 59.085 25.2346 59.085C25.3831 59.085 25.5151 59.1125 25.6361 59.162C25.8836 59.2665 25.9606 59.3655 26.0211 59.459H26.0596ZM25.3721 61.2905C25.7516 61.2905 26.0761 61.0155 26.0761 60.57C26.0761 60.1245 25.7516 59.8495 25.3721 59.8495C24.9816 59.8495 24.6736 60.1245 24.6736 60.57C24.6736 61.0155 24.9816 61.2905 25.3721 61.2905ZM31.2089 59.6625V58.15H32.0944V62H31.2089V60.4765H29.7514V62H28.8659V58.15H29.7514V59.6625H31.2089ZM34.0361 59.085C34.3826 59.085 34.7291 59.2225 35.0316 59.492C35.3341 59.756 35.4991 60.262 35.4111 60.878H33.4366C33.5301 61.175 33.7611 61.3235 34.1186 61.3235C34.2506 61.3235 34.3551 61.318 34.4486 61.2905L34.5586 61.2575C34.6026 61.241 34.7511 61.1805 34.7786 61.164L35.2571 61.626C34.9656 61.912 34.5751 62.055 34.0856 62.055C33.8381 62.055 33.6016 62.0055 33.3761 61.901C32.9306 61.6865 32.5676 61.2025 32.5676 60.581C32.5676 59.5745 33.3926 59.085 34.0361 59.085ZM34.0361 59.8275C33.7776 59.8275 33.5466 59.9815 33.4421 60.262H34.6301C34.5641 59.9815 34.3056 59.8275 34.0361 59.8275ZM37.1174 62.055C36.7599 62.055 36.4409 61.923 36.1494 61.6645C35.8634 61.406 35.7204 61.0375 35.7204 60.57C35.7204 60.1025 35.8634 59.734 36.1494 59.4755C36.4409 59.217 36.7599 59.085 37.1174 59.085C37.2659 59.085 37.3979 59.1125 37.5189 59.162C37.7664 59.2665 37.8434 59.3655 37.9039 59.459H37.9424V59.14H38.8114V62H37.9424V61.681H37.9039C37.8764 61.7305 37.8324 61.78 37.7829 61.8295C37.6784 61.923 37.4089 62.055 37.1174 62.055ZM37.2549 61.2905C37.6344 61.2905 37.9589 61.0155 37.9589 60.57C37.9589 60.1245 37.6344 59.8495 37.2549 59.8495C36.8644 59.8495 36.5564 60.1245 36.5564 60.57C36.5564 61.0155 36.8644 61.2905 37.2549 61.2905ZM39.3706 58.1115H40.2396V62H39.3706V58.1115ZM42.1798 61.2685C42.2788 61.2685 42.3943 61.2465 42.5208 61.208V61.912C42.3723 61.9945 42.1743 62.033 41.9268 62.033C41.3548 62.033 41.0358 61.8295 41.0358 61.175V59.855H40.6343V59.14H41.0358V58.4085H41.9048V59.14H42.5153V59.855H41.9048V60.999C41.9048 61.131 41.9378 61.2685 42.1798 61.2685ZM44.7185 59.085C45.0045 59.085 45.252 59.195 45.461 59.4095C45.67 59.624 45.7745 59.9375 45.7745 60.361V62H44.9V60.4215C44.9 60.02 44.6855 59.844 44.383 59.844C44.2345 59.844 44.1025 59.899 43.998 60.009C43.8935 60.119 43.833 60.2235 43.8275 60.317V62H42.9585V58.1115H43.8275V59.657C43.866 59.5415 43.965 59.415 44.1245 59.283C44.284 59.151 44.482 59.085 44.7185 59.085Z" fill="white"/>
<path d="M42 1H17C18.6 1 19 2.33333 19 3C19 4.6 20.3333 5 21 5H38C38.6667 5 40 4.6 40 3C40 1.4 41.3333 1 42 1Z" fill="black"/>
<circle cx="29.5" cy="2.5" r="1.5" fill="#404040"/>
<rect x="23" y="116" width="14" height="1" rx="0.5" fill="white"/>
<rect x="0.5" y="0.5" width="59" height="118" rx="4.5" stroke="black"/>
<defs>
<linearGradient id="paint0_linear_41_12" x1="29.5" y1="96" x2="29.5" y2="117.5" gradientUnits="userSpaceOnUse">
<stop stop-color="#38277B"/>
<stop offset="1" stop-color="#38277B" stop-opacity="0"/>
</linearGradient>
</defs>
</svg>
