<svg width="52" height="10" viewBox="0 0 52 10" fill="none" xmlns="http://www.w3.org/2000/svg">
<path d="M11.87 0.9C12.99 0.9 13.78 1.55 14.19 2.35L13.22 2.92C12.82 2.33 12.45 2.06 11.88 2.06C11.29 2.06 10.9 2.38 10.9 2.86C10.9 3.23 11.19 3.52 11.76 3.73L12.24 3.91C13.75 4.44 14.38 5.05 14.38 6.02C14.38 6.67 14.13 7.18 13.63 7.55C13.13 7.92 12.55 8.1 11.9 8.1C11.29 8.1 10.75 7.94 10.28 7.62C9.82 7.3 9.51 6.89 9.35 6.38L10.36 5.85C10.67 6.56 11.19 6.91 11.9 6.91C12.57 6.91 13.02 6.59 13.02 6C13.02 5.51 12.73 5.31 11.88 4.99L11.44 4.82C10.25 4.39 9.6 3.85 9.6 2.82C9.6 2.24 9.82 1.78 10.25 1.43C10.68 1.08 11.22 0.9 11.87 0.9ZM17.0724 2.7C17.7024 2.7 18.3424 2.95 18.8724 3.43C19.4224 3.91 19.7124 4.79 19.5824 5.87H15.6924C15.8524 6.6 16.4424 7.01 17.2024 7.01C17.8124 7.01 18.1124 6.89 18.5524 6.61L19.2624 7.3C18.7624 7.83 18.0624 8.1 17.1624 8.1C16.4424 8.1 15.8024 7.86 15.2424 7.39C14.6924 6.91 14.4124 6.25 14.4124 5.41C14.4124 3.6 15.9024 2.7 17.0724 2.7ZM17.0724 3.8C16.4624 3.8 15.8724 4.21 15.7024 4.93H18.4324C18.3224 4.21 17.7124 3.8 17.0724 3.8ZM23.9339 2.8H25.2539L22.9839 8H21.8139L19.5539 2.8H20.8739L22.4039 6.45L23.9339 2.8ZM27.7551 8.1C27.1051 8.1 26.5051 7.86 25.9751 7.39C25.4451 6.91 25.1851 6.25 25.1851 5.4C25.1851 4.55 25.4451 3.89 25.9751 3.42C26.5051 2.94 27.1051 2.7 27.7551 2.7C28.5551 2.7 29.1451 3.13 29.3551 3.54H29.4251V2.8H30.7051V8H29.4251V7.26H29.3551C29.1451 7.67 28.5551 8.1 27.7551 8.1ZM26.8751 6.55C27.1751 6.82 27.5251 6.96 27.9351 6.96C28.3451 6.96 28.6951 6.82 28.9951 6.55C29.3051 6.28 29.4551 5.89 29.4551 5.4C29.4551 4.91 29.3051 4.52 28.9951 4.25C28.6951 3.98 28.3451 3.84 27.9351 3.84C27.5251 3.84 27.1751 3.98 26.8751 4.25C26.5851 4.52 26.4351 4.91 26.4351 5.4C26.4351 5.89 26.5851 6.28 26.8751 6.55ZM33.743 6.45L35.273 2.8H36.593L34.323 8L33.443 9.9H32.163L33.093 7.87L30.893 2.8H32.213L33.743 6.45ZM38.6541 8.1C38.1241 8.1 37.6741 7.91 37.2841 7.52C36.9041 7.13 36.7141 6.56 36.7141 5.8V2.8H38.0041V5.72C38.0041 6.56 38.4841 6.97 39.1241 6.97C39.4741 6.97 39.7741 6.84 40.0041 6.59C40.2341 6.34 40.3641 6.1 40.3741 5.87V2.8H41.6641V8H40.3741V6.98C40.3041 7.21 40.1141 7.45 39.8041 7.71C39.4941 7.97 39.1141 8.1 38.6541 8.1Z" fill="#38277B"/>
<g clip-path="url(#clip0_69_10)">
<path d="M5.91261 1.63522L5.73362 1.47421L5.20322 0.977007L5.01223 0.799797C4.91227 0.707167 4.80561 0.620977 4.693 0.541829C4.51846 0.421335 4.33027 0.318875 4.13176 0.236268L4.12003 0.231458C4.04773 0.202598 3.97733 0.177283 3.90476 0.151967C3.47892 0.0139046 3.02454 -0.0313063 2.57684 0.0198396C2.12913 0.0709855 1.70014 0.217114 1.32312 0.446895C1.28674 0.468161 1.25236 0.490185 1.21998 0.512969L1.1927 0.530184C1.07452 0.612097 0.962902 0.701866 0.858738 0.798784C0.336166 1.28501 0.0303896 1.93617 0.00242257 2.62235C-0.0255444 3.30852 0.226354 3.97925 0.707856 4.50071C0.341684 4.89606 0.105461 5.38059 0.02723 5.89679C-0.0510013 6.413 0.0320441 6.93918 0.266508 7.4129C0.500972 7.88662 0.877007 8.28796 1.34998 8.5693C1.82295 8.85063 2.37298 9.00014 2.9348 9.00007C3.32051 9.00112 3.70261 8.93115 4.05897 8.79423C4.41534 8.6573 4.73888 8.45613 5.01086 8.20237L5.26624 7.96567L5.29135 7.94035L5.64604 7.61125L8.99928 4.49995L5.91261 1.63522ZM2.9348 7.95276C2.59693 7.95283 2.26581 7.865 1.97902 7.69925C1.69224 7.53351 1.46128 7.29648 1.31236 7.01508C1.16345 6.73367 1.10255 6.41917 1.13657 6.10727C1.17059 5.79537 1.29817 5.49857 1.50483 5.25056L4.03981 7.60315C3.7239 7.83094 3.33489 7.95402 2.9348 7.95276ZM4.84934 6.87127L4.48182 6.53153L1.65708 3.9106C1.38191 3.6545 1.20316 3.32284 1.14741 2.96493C1.09167 2.60702 1.1619 2.24197 1.34767 1.92407C1.34767 1.92128 1.35067 1.91875 1.35122 1.91647C1.35177 1.9142 1.35422 1.91116 1.3564 1.90837C1.35859 1.90559 1.36404 1.89597 1.36759 1.88964C1.44688 1.76151 1.54424 1.64377 1.65708 1.53952L1.66362 1.53345L1.67263 1.52636L1.68218 1.51674L1.69555 1.50383C1.70073 1.50028 1.70592 1.49547 1.7111 1.49142C1.82699 1.38654 1.96029 1.29961 2.1059 1.23396C2.10643 1.23379 2.10701 1.23379 2.10754 1.23396C2.32606 1.12993 2.56511 1.06823 2.81014 1.05261C3.05517 1.03698 3.30106 1.06776 3.53287 1.14308C3.55579 1.15067 3.57816 1.15751 3.60572 1.16839C3.62646 1.17599 3.64719 1.18358 3.67311 1.19371C3.69903 1.20384 3.73096 1.21903 3.75988 1.23219C3.80975 1.25588 3.85828 1.2819 3.9053 1.31016L3.92768 1.32383L3.96096 1.3451C3.96697 1.3494 3.97351 1.35269 3.97815 1.35548C3.9907 1.36459 4.00325 1.37269 4.01662 1.38079C4.03818 1.39522 4.05891 1.41092 4.08429 1.43016L4.11757 1.45547C4.13913 1.47269 4.15987 1.49117 4.18142 1.5099L4.40488 1.71623L5.10963 2.37975L5.29216 2.54076L7.40315 4.5002L4.84934 6.87127Z" fill="url(#paint0_linear_69_10)"/>
</g>
<defs>
<linearGradient id="paint0_linear_69_10" x1="-0.114766" y1="4.49995" x2="10.4947" y2="4.49995" gradientUnits="userSpaceOnUse">
<stop stop-color="#ED1067"/>
<stop offset="0.144982" stop-color="#E51067"/>
<stop offset="0.703125" stop-color="#8C1169"/>
<stop offset="0.895833" stop-color="#58126A"/>
<stop offset="0.916667" stop-color="#B31168"/>
<stop offset="0.9998" stop-color="#5E126A"/>
<stop offset="0.9999" stop-color="#6F126A"/>
</linearGradient>
<clipPath id="clip0_69_10">
<rect width="9" height="9" fill="white"/>
</clipPath>
</defs>
</svg>
