<svg width="33" height="10" viewBox="0 0 33 10" fill="none" xmlns="http://www.w3.org/2000/svg">
<path d="M2.87 0.9C3.99 0.9 4.78 1.55 5.19 2.35L4.22 2.92C3.82 2.33 3.45 2.06 2.88 2.06C2.29 2.06 1.9 2.38 1.9 2.86C1.9 3.23 2.19 3.52 2.76 3.73L3.24 3.91C4.75 4.44 5.38 5.05 5.38 6.02C5.38 6.67 5.13 7.18 4.63 7.55C4.13 7.92 3.55 8.1 2.9 8.1C2.29 8.1 1.75 7.94 1.28 7.62C0.82 7.3 0.51 6.89 0.35 6.38L1.36 5.85C1.67 6.56 2.19 6.91 2.9 6.91C3.57 6.91 4.02 6.59 4.02 6C4.02 5.51 3.73 5.31 2.88 4.99L2.44 4.82C1.25 4.39 0.6 3.85 0.6 2.82C0.6 2.24 0.82 1.78 1.25 1.43C1.68 1.08 2.22 0.9 2.87 0.9ZM8.07242 2.7C8.70242 2.7 9.34242 2.95 9.87242 3.43C10.4224 3.91 10.7124 4.79 10.5824 5.87H6.69242C6.85242 6.6 7.44242 7.01 8.20242 7.01C8.81242 7.01 9.11242 6.89 9.55242 6.61L10.2624 7.3C9.76242 7.83 9.06242 8.1 8.16242 8.1C7.44242 8.1 6.80242 7.86 6.24242 7.39C5.69242 6.91 5.41242 6.25 5.41242 5.41C5.41242 3.6 6.90242 2.7 8.07242 2.7ZM8.07242 3.8C7.46242 3.8 6.87242 4.21 6.70242 4.93H9.43242C9.32242 4.21 8.71242 3.8 8.07242 3.8ZM14.9339 2.8H16.2539L13.9839 8H12.8139L10.5539 2.8H11.8739L13.4039 6.45L14.9339 2.8ZM18.7551 8.1C18.1051 8.1 17.5051 7.86 16.9751 7.39C16.4451 6.91 16.1851 6.25 16.1851 5.4C16.1851 4.55 16.4451 3.89 16.9751 3.42C17.5051 2.94 18.1051 2.7 18.7551 2.7C19.5551 2.7 20.1451 3.13 20.3551 3.54H20.4251V2.8H21.7051V8H20.4251V7.26H20.3551C20.1451 7.67 19.5551 8.1 18.7551 8.1ZM17.8751 6.55C18.1751 6.82 18.5251 6.96 18.9351 6.96C19.3451 6.96 19.6951 6.82 19.9951 6.55C20.3051 6.28 20.4551 5.89 20.4551 5.4C20.4551 4.91 20.3051 4.52 19.9951 4.25C19.6951 3.98 19.3451 3.84 18.9351 3.84C18.5251 3.84 18.1751 3.98 17.8751 4.25C17.5851 4.52 17.4351 4.91 17.4351 5.4C17.4351 5.89 17.5851 6.28 17.8751 6.55ZM24.743 6.45L26.273 2.8H27.593L25.323 8L24.443 9.9H23.163L24.093 7.87L21.893 2.8H23.213L24.743 6.45ZM29.6541 8.1C29.1241 8.1 28.6741 7.91 28.2841 7.52C27.9041 7.13 27.7141 6.56 27.7141 5.8V2.8H29.0041V5.72C29.0041 6.56 29.4841 6.97 30.1241 6.97C30.4741 6.97 30.7741 6.84 31.0041 6.59C31.2341 6.34 31.3641 6.1 31.3741 5.87V2.8H32.6641V8H31.3741V6.98C31.3041 7.21 31.1141 7.45 30.8041 7.71C30.4941 7.97 30.1141 8.1 29.6541 8.1Z" fill="#38277B"/>
</svg>
